<svg width="819" height="232" viewBox="0 0 819 232" fill="none" xmlns="http://www.w3.org/2000/svg">
<path d="M437.282 158.686C437.433 173.127 437.699 187.12 437.579 201.111C437.523 207.734 434.055 210.107 425.92 210.004C419.28 209.919 416.098 207.11 416.035 200.852C415.924 189.856 416.05 178.857 415.96 167.861C415.937 165.047 416.034 162.022 415.057 159.487C414.145 157.119 412.119 153.864 410.154 153.531C407.335 153.054 402.901 153.932 401.365 155.929C398.911 159.121 397.288 163.652 397.057 167.716C396.461 178.181 396.849 188.7 396.792 199.197C396.747 207.358 394.069 210.004 386.004 210.004C377.895 210.005 375.134 207.324 375.092 199.312C375.03 187.316 375.173 175.315 374.903 163.324C374.729 155.585 371.569 151.835 365.933 153.154C363.006 153.839 359.872 156.585 358.289 159.262C356.622 162.079 356.19 165.911 356.1 169.322C355.834 179.48 356.038 189.648 355.988 199.812C355.95 207.466 353.031 210.035 344.612 210.004C336.768 209.976 334.012 207.309 334 199.587C333.975 182.591 333.988 165.595 333.994 148.599C333.996 141.461 336.079 138.167 341.136 137.246C348.183 135.961 352.123 138.137 354.814 144.782C354.935 145.081 355.172 145.333 355.357 145.604C372.454 132.056 380.892 132.175 392.861 146.57C394.316 145.31 395.778 144.065 397.217 142.794C401.854 138.7 407.107 136.132 413.417 135.915C428.82 135.386 435.764 141.862 437.282 158.686Z" fill="#FAFAFA"/>
<path d="M695.267 175C695.264 183.833 695.338 192.166 695.234 200.498C695.146 207.573 692.21 210.031 684.262 210.001C676.835 209.974 673.929 207.369 673.88 200.415C673.804 189.583 673.904 178.75 673.804 167.918C673.778 165.1 673.836 162.075 672.854 159.533C671.933 157.151 669.989 153.997 667.943 153.511C665.326 152.891 661.028 153.666 659.481 155.525C657.002 158.505 655.118 162.803 654.874 166.663C654.203 177.289 654.161 187.989 654.529 198.637C654.948 210.78 646.728 211.198 638.371 209.375C634.374 208.502 632.902 204.943 632.929 200.819C633 190.154 632.997 179.487 632.906 168.822C632.881 165.837 632.513 162.849 632.185 159.876C631.807 156.447 630.294 153.812 626.626 153.078C622.856 152.324 619.224 153.16 617.52 156.628C615.741 160.249 614.202 164.357 614.013 168.321C613.521 178.63 613.78 188.978 613.837 199.31C613.86 203.376 613.324 207.906 609.13 208.814C604.709 209.772 599.634 209.366 595.269 208.099C593.535 207.596 592.016 203.19 591.973 200.535C591.686 182.708 591.797 164.873 591.835 147.041C591.848 141.174 594.19 138.065 598.967 137.24C605.602 136.094 609.942 138.153 612.065 143.458C612.358 144.187 612.643 144.92 612.987 145.794C626.446 131.28 642.245 133.308 650.83 146.818C657.407 139.48 665.207 135.104 675.437 135.896C685.653 136.686 692.193 141.48 693.858 151.624C695.089 159.125 694.85 166.866 695.267 175Z" fill="#FAFAFA"/>
<path d="M45.1809 129.45C45.138 135.246 45.2792 140.582 45.0685 145.904C44.9369 149.227 46.2359 150.249 49.4387 150.181C57.0976 150.019 64.7627 150.088 72.4246 150.151C79.1597 150.206 82.5378 153.234 82.5885 159.088C82.6397 164.993 79.3051 168.033 72.5951 168.074C64.9329 168.12 57.2664 168.233 49.6097 168.026C46.053 167.929 44.9886 169.263 45.0625 172.683C45.2424 181.008 45.1226 189.339 45.1171 197.668C45.1102 208.182 43.2116 210.037 32.5111 210.005C23.8712 209.98 21.3243 207.42 21.3069 198.571C21.277 183.413 21.297 168.255 21.2978 153.096C21.2984 141.436 21.2451 129.776 21.324 118.116C21.3748 110.595 24.1276 107.901 31.643 107.882C46.3013 107.844 60.96 107.836 75.6183 107.889C82.3632 107.914 85.2211 110.731 85.2853 117.136C85.3529 123.883 82.4367 126.933 75.6493 126.986C66.9879 127.053 58.3237 126.912 49.6658 127.095C48.1699 127.127 46.6988 128.326 45.1809 129.45Z" fill="#FAFAFA"/>
<path d="M549.668 180.142C549.876 169.07 549.98 158.416 550.085 147.762C550.164 139.807 552.921 137.137 561.077 137.118C569.718 137.099 572.558 139.632 572.592 147.772C572.662 164.261 572.621 180.749 572.617 197.237C572.614 205.56 570.79 208.904 565.76 209.881C557.688 211.448 553.932 209.346 550.602 201.124C549.438 202.15 548.368 203.099 547.293 204.041C539.556 210.817 530.558 212.632 520.703 210.53C512.19 208.714 507.299 202.95 506.186 194.688C505.125 186.813 505.104 178.781 504.909 170.811C504.714 162.821 504.814 154.822 504.886 146.829C504.95 139.732 507.905 137.14 515.71 137.119C523.786 137.097 526.885 139.749 526.936 146.999C527.011 157.657 526.945 168.317 526.976 178.976C526.983 181.137 526.961 183.327 527.286 185.454C528.504 193.437 536.201 196.844 542.326 191.557C545.522 188.799 547.2 184.282 549.668 180.142Z" fill="#F9F9F9"/>
<path d="M273.457 181.013C270.601 180.849 269.576 181.695 270.441 184.232C272.522 190.334 276.792 194.337 283.055 194.856C288.591 195.314 294.309 194.698 299.836 193.839C305.626 192.939 309.567 194.275 310.825 198.637C312.232 203.514 309.555 207.624 303.664 209.127C292.847 211.886 281.903 212.685 271.172 209.065C257.806 204.556 249.858 195 248.107 181.041C247.355 175.036 247.42 168.64 248.627 162.73C252.549 143.521 269.201 133.199 290.282 136.211C308.72 138.846 320.511 154.024 319.043 173.236C318.667 178.151 315.512 180.94 309.874 180.978C297.885 181.06 285.895 181.007 273.457 181.013ZM288.501 151.665C276.909 149.6 268.733 156.406 270.563 166.732C279.612 166.732 288.679 166.732 297.713 166.732C298.345 158.768 295.992 154.738 288.501 151.665Z" fill="#FAFAFA"/>
<path d="M227.822 198.624C228.101 205.404 226.676 207.534 220.77 209.114C210.967 211.737 201.026 212.29 191.119 209.974C176.727 206.611 166.761 195.345 164.926 180.647C163.243 167.175 165.11 154.647 175.493 144.756C185.579 135.147 204.627 132.856 218.196 139.43C229.885 145.092 237.102 158.743 236.045 173.189C235.683 178.136 232.554 180.935 226.918 180.978C215.592 181.064 204.265 181.007 192.938 181.008C191.126 181.009 189.315 181.008 187.503 181.008C187.535 188.292 192.492 194.219 200.128 194.864C205.821 195.344 211.718 194.64 217.395 193.692C222.171 192.895 225.582 193.734 227.822 198.624ZM208.471 152.739C196.037 148.201 185.954 154.799 187.432 166.776C196.473 166.776 205.544 166.776 214.969 166.776C215.259 160.997 213.958 156.327 208.471 152.739Z" fill="#FAFAFA"/>
<path d="M788.965 135.943C787.529 138.948 786.143 139.346 783.449 137.502C774.24 131.198 764.043 130.152 753.917 134.421C737.53 141.33 721.557 134.344 713.311 121.444C709.448 115.402 705.114 113.429 698.665 113.984C697.904 114.05 697.12 113.856 696.129 113.762C697.946 111.238 699.645 109.05 701.158 106.739C704.079 102.278 709.355 101.202 712.917 105.137C716.345 108.924 722.138 110.914 722.65 117.176C722.7 117.789 724.326 118.273 725.22 118.816C725.652 117.699 726.528 116.544 726.438 115.47C726.052 110.857 724.646 106.205 725.031 101.688C725.383 97.5556 726.687 92.935 729.103 89.6587C735.34 81.1999 739.351 72.1952 739.606 61.6237C739.617 61.1833 739.987 60.7516 740.193 60.3105C753.459 67.0222 759.784 86.047 753.29 101.178C751.169 106.12 747.399 110.342 744.509 114.972C743.655 116.341 743.232 117.979 742.611 119.493C744.183 119.107 745.774 118.784 747.317 118.303C747.9 118.121 748.371 117.575 749.08 117.059C766.917 132.765 779.86 118.955 794.235 109.323C795.825 119.005 793.726 127.526 788.965 135.943Z" fill="#F9F9F9"/>
<path d="M100.815 199.752C100.813 182.463 100.806 165.64 100.816 148.818C100.821 140.231 103.14 137.338 110.129 137.125C119.014 136.855 121.61 139.296 122.079 148.343C122.104 148.834 122.231 149.321 122.462 150.738C123.966 149.293 125.084 148.242 126.177 147.167C131.54 141.889 137.91 138.484 145.259 136.911C150.999 135.682 154.16 137.239 155.477 141.898C156.971 147.186 154.394 152.338 149.303 153.88C146.604 154.698 143.755 155.023 141.058 155.846C129.671 159.319 123.98 166.711 123.692 178.559C123.518 185.717 123.715 192.883 123.601 200.044C123.487 207.188 120.62 209.92 113.464 210.005C103.625 210.122 101.236 208.273 100.815 199.752Z" fill="#F9F9F9"/>
<path d="M483.18 191.982C483.177 195.304 483.226 198.131 483.146 200.955C483.109 202.268 483.048 203.657 482.607 204.869C480.915 209.523 475.437 211.291 466.838 209.893C462.248 209.148 459.869 206.236 459.859 201.595C459.822 182.978 459.78 164.36 459.878 145.744C459.907 140.347 462.852 137.501 468.191 137.164C470.013 137.048 471.848 137.094 473.675 137.138C480.264 137.297 483.119 140.044 483.151 146.605C483.225 161.565 483.178 176.525 483.18 191.982Z" fill="#FBFBFB"/>
<path d="M722.832 73.2006C723.962 74.8794 724.819 76.3112 725.799 77.654C728.12 80.8358 727.821 83.4014 725.717 87.0299C722.648 92.3228 721.018 98.4507 718.735 104.327C715.057 101.485 711.339 98.6846 711.598 91.8849C711.989 81.6586 708.904 71.8279 704.23 62.6231C703.44 61.0668 702.774 59.4473 701.635 56.9414C710.849 60.5212 717.364 65.8783 722.832 73.2006Z" fill="#F9F9F9"/>
<path d="M715.277 28.655C717.869 28.7721 720.076 28.5831 722.18 28.9624C723.224 29.1505 724.948 30.5517 724.84 31.1088C724.609 32.2976 723.407 34.2078 722.565 34.2281C713.754 34.4403 704.934 34.4125 696.122 34.2063C695.218 34.1852 693.735 32.63 693.648 31.6829C693.567 30.8044 694.985 29.7783 695.763 28.8333C696.44 28.01 697.145 27.2091 697.838 26.3982C696.789 25.807 695.796 24.8898 694.679 24.6968C692.729 24.36 690.609 24.7965 688.741 24.2695C687.603 23.9485 686.803 22.4303 685.851 21.4499C686.869 20.5823 687.869 18.9872 688.907 18.9621C697.396 18.757 705.893 18.7728 714.383 18.9407C715.369 18.9602 716.954 20.1968 717.123 21.0854C717.291 21.9701 716.259 23.4761 715.34 24.0946C713.204 25.5318 711.359 26.6641 715.277 28.655Z" fill="#F5F5F5"/>
<path d="M787.778 47.1699C780.658 47.1657 774.005 47.2695 767.361 47.0703C765.948 47.0279 764.568 45.8815 763.174 45.2438C764.03 44.047 764.911 42.8668 765.735 41.6478C766.325 40.774 767.465 39.6063 767.233 39.0051C766.92 38.1954 765.573 37.443 764.582 37.3084C762.455 37.0192 760.203 37.4423 758.14 36.9728C757.045 36.7237 756.235 35.2174 755.297 34.2787C756.221 33.4898 757.13 32.0355 758.07 32.0159C766.709 31.8354 775.355 31.8324 783.995 31.9975C784.97 32.0161 786.537 33.2807 786.698 34.1719C786.848 35.0008 785.526 36.1344 784.779 37.0755C784.029 38.0203 783.188 38.893 782.386 39.7972C783.593 40.4688 784.732 41.422 786.026 41.736C787.441 42.0795 789.1 41.5071 790.469 41.9292C791.978 42.3944 793.279 43.5361 794.67 44.3832C793.361 45.3062 792.119 46.3591 790.712 47.0946C790.057 47.4371 789.08 47.1638 787.778 47.1699Z" fill="#FAFAFA"/>
<path d="M481.277 115.655C483.869 115.772 486.076 115.583 488.18 115.962C489.224 116.15 490.948 117.552 490.84 118.109C490.609 119.298 489.407 121.208 488.565 121.228C479.754 121.44 470.934 121.413 462.122 121.206C461.218 121.185 459.735 119.63 459.648 118.683C459.567 117.804 460.985 116.778 461.763 115.833C462.44 115.01 463.145 114.209 463.838 113.398C462.789 112.807 461.796 111.89 460.679 111.697C458.729 111.36 456.609 111.797 454.741 111.27C453.603 110.949 452.803 109.43 451.851 108.45C452.869 107.582 453.869 105.987 454.907 105.962C463.396 105.757 471.893 105.773 480.383 105.941C481.369 105.96 482.954 107.197 483.123 108.085C483.291 108.97 482.259 110.476 481.34 111.095C479.204 112.532 477.359 113.664 481.277 115.655Z" fill="#F5F5F5"/>
</svg>
